<?xml version="1.0" encoding="utf-8"?>
<svg xmlns="http://www.w3.org/2000/svg" xmlns:xlink="http://www.w3.org/1999/xlink" viewBox="0 0 1564.81 881.77"><defs><style>.cls-1{fill:url(#linear-gradient);}.cls-2{fill:#1A1A1A;}</style><linearGradient id="linear-gradient" x1="869.92" y1="701.59" x2="1464.68" y2="93.47" gradientUnits="userSpaceOnUse"><stop offset="0" stop-color="#1A1A1A" stop-opacity="0"/><stop offset="0.09" stop-color="#1A1A1A" stop-opacity="0.16"/><stop offset="0.23" stop-color="#1A1A1A" stop-opacity="0.38"/><stop offset="0.36" stop-color="#1A1A1A" stop-opacity="0.57"/><stop offset="0.5" stop-color="#1A1A1A" stop-opacity="0.72"/><stop offset="0.63" stop-color="#1A1A1A" stop-opacity="0.84"/><stop offset="0.76" stop-color="#1A1A1A" stop-opacity="0.93"/><stop offset="0.89" stop-color="#1A1A1A" stop-opacity="0.98"/><stop offset="1" stop-color="#1A1A1A"/></linearGradient></defs><title>Asset 7</title><g id="Layer_2" data-name="Layer 2"><g id="Calque_1" data-name="Calque 1"><g id="logo-pm"><path id="m-shape" class="cls-1" d="M1486.12,306.65l-222-222c-1.88-2-3.78-4-5.74-5.94h0a268.88,268.88,0,0,0-380.13,0h0c-2,2-3.87,3.94-5.75,5.94l-31.82,31.82,190.2,190.2C1132.62,408.42,1135.67,571.52,1040,677l28.27-28.27,37.9,37.89c104.92,104.92,275,104.92,379.94,0h0C1591,581.67,1591,411.57,1486.12,306.65Z"/><path id="p-shape" class="cls-2" d="M1030.85,306.65l-190.2-190.2L808.83,84.63c-1.89-2-3.79-4-5.75-5.94h0a268.88,268.88,0,0,0-380.13,0h0c-2,2-3.86,3.94-5.75,5.94l-222,222-.17.17L78.69,423.15c-104.92,104.91-104.92,275,0,379.94h0c104.92,104.91,275,104.91,379.94,0L613,648.7,641.29,677l9.62,9.62a268.1,268.1,0,0,0,379.48,0L1040,677C1135.67,571.52,1132.62,408.42,1030.85,306.65Z"/></g></g></g></svg>
